<svg width="221" height="40" viewBox="0 0 221 40" fill="none" xmlns="http://www.w3.org/2000/svg">
<path d="M51.984 11.904V21.552C51.984 22.96 52.336 23.976 53.04 24.6C53.744 25.224 54.672 25.536 55.824 25.536C56.976 25.536 57.904 25.224 58.608 24.6C59.312 23.976 59.664 22.96 59.664 21.552V11.904H61.56V21.552C61.56 23.44 61.04 24.864 60 25.824C58.96 26.784 57.56 27.264 55.8 27.264C54.056 27.264 52.664 26.784 51.624 25.824C50.6 24.864 50.088 23.44 50.088 21.552V11.904H51.984ZM70.3031 25.344H77.0231V27H68.4071V11.904H70.3031V25.344ZM78.4618 11.904H90.1978V13.536H85.2778V27H83.3818V13.536H78.4618V11.904ZM105.557 16.224C105.557 17.472 105.221 18.48 104.549 19.248C103.893 20.016 102.917 20.512 101.621 20.736L105.941 27H103.493L99.5813 20.832H96.9413V27H95.0453V11.904H100.301C101.997 11.904 103.293 12.312 104.189 13.128C105.101 13.944 105.557 14.976 105.557 16.224ZM100.157 19.512C101.293 19.512 102.149 19.24 102.725 18.696C103.317 18.136 103.613 17.408 103.613 16.512C103.613 15.6 103.325 14.88 102.749 14.352C102.189 13.808 101.373 13.536 100.301 13.536H96.9413V19.512H100.157ZM115.428 11.904H117.732L122.796 27H120.828L119.532 23.16H113.532L112.236 27H110.244L115.428 11.904ZM114.036 21.672H119.052L116.556 14.232L114.036 21.672ZM132.977 11.424C135.345 11.424 137.257 12.128 138.713 13.536C140.185 14.944 140.921 16.84 140.921 19.224C140.921 21.592 140.185 23.48 138.713 24.888C137.257 26.296 135.345 27 132.977 27H127.913V11.424H132.977ZM130.769 24.432H132.977C134.449 24.432 135.641 23.936 136.553 22.944C137.417 21.984 137.849 20.744 137.849 19.224C137.849 17.672 137.417 16.416 136.553 15.456C135.657 14.48 134.465 13.992 132.977 13.992H130.769V24.432ZM144.39 11.424H147.222V27H144.39V11.424ZM152.927 11.424L156.719 23.448L160.559 11.424H163.535L158.183 27H155.207L149.927 11.424H152.927ZM166.257 11.424H169.089V27H166.257V11.424ZM176.594 11.424L183.458 22.464V11.424H186.29V27H183.41L176.33 15.576V27H173.498V11.424H176.594ZM190.725 11.424H200.757V13.872H193.557V17.976H200.301V20.424H193.557V24.528H200.757V27H190.725V11.424ZM216.38 16.2C216.38 17.304 216.068 18.248 215.444 19.032C214.82 19.816 213.924 20.36 212.756 20.664L216.932 27H213.236L209.804 20.928H207.644V27H204.812V11.424H210.572C212.412 11.424 213.844 11.864 214.868 12.744C215.876 13.592 216.38 14.744 216.38 16.2ZM210.308 19.032C211.348 19.032 212.132 18.8 212.66 18.336C213.188 17.856 213.452 17.232 213.452 16.464C213.452 15.68 213.212 15.056 212.732 14.592C212.252 14.112 211.532 13.872 210.572 13.872H207.644V19.032H210.308Z" fill="black"/>
<ellipse cx="18.8428" cy="19.1346" rx="18.3268" ry="18.4808" fill="#FFF8F0"/>
<mask id="mask0" mask-type="alpha" maskUnits="userSpaceOnUse" x="1" y="1" width="36" height="36">
<circle cx="18.9305" cy="18.9028" r="17.1528" fill="white" stroke="black"/>
</mask>
<g mask="url(#mask0)">
<rect x="-3.38892" y="0.0278015" width="54.9159" height="37.8224" fill="#058ED9" stroke="black"/>
<path d="M10.4174 18.5162L12.3296 24.0209L17.6604 12.5769L21.2819 19.0956L26.2071 13.8807L31.855 21.4914L33.6285 17.3183L44.894 29.2414L37.7668 33.4144L33.5143 33.8433L20.4127 46.1844L0.422074 43.4321L-4.21344 33.0022L0.703896 32.0532L-0.0690765 26.8568L1.1133 20.2991L2.88685 28.0491L5.2516 20.8952L7.32787 24.7655L10.4174 18.5162Z" fill="#D72638"/>
<path d="M13.5282 27.4529L12.3296 24.0209M12.3296 24.0209L10.4174 18.5162L7.32787 24.7655M12.3296 24.0209L17.6604 12.5769L21.2819 19.0956M24.1695 24.0209L21.2819 19.0956M21.2819 19.0956L26.2071 13.8807L31.855 21.4914M31.855 21.4914L35.9933 26.8568L37.7668 29.8375L20.4127 46.1844L0.422074 43.4321L-4.21344 33.0022L4.04357 31.4087L7.32787 24.7655M31.855 21.4914L33.6285 17.3183L44.894 29.2414L37.7668 33.4144L31.855 34.0106L23.5784 41.1644L1.70448 38.7798L-0.0690765 26.8568L1.1133 20.2991L2.88685 28.0491L5.2516 20.8952L7.32787 24.7655" stroke="#FFF8F0" stroke-width="0.3"/>
<ellipse cx="18.9305" cy="7.70832" rx="2.15278" ry="2.15278" fill="#FFF8F0"/>
</g>
</svg>
